<svg width="32" height="39" viewBox="0 0 32 39" fill="none" xmlns="http://www.w3.org/2000/svg">
<g clip-path="url(#clip0_1_203)">
<path d="M16.716 0.00146484C17.3132 0.133299 17.9136 0.255603 18.5077 0.398556C18.877 0.488299 19.0557 0.775793 19.0636 1.12762C19.0716 1.46594 18.9008 1.76296 18.5577 1.84953C18.3428 1.89624 18.1196 1.88914 17.9081 1.82888C16.5214 1.47229 15.1364 1.44529 13.7894 1.94483C11.1917 2.90817 9.60966 4.75544 9.18318 7.51523C8.60502 11.2542 11.283 14.7764 15.0093 15.3109C16.7751 15.5619 18.5697 15.1221 20.0195 14.0832C21.4693 13.0443 22.4624 11.4862 22.7923 9.73338C22.9929 8.66682 22.9352 7.56773 22.6239 6.52806C22.5699 6.34142 22.508 6.1405 22.5262 5.95386C22.5415 5.78113 22.619 5.61983 22.7444 5.50002C22.8698 5.3802 23.0344 5.31005 23.2077 5.30263C23.6286 5.26928 23.9177 5.44479 24.0503 5.85856C24.3519 6.76026 24.4946 7.70751 24.472 8.65806C24.4077 10.468 23.8668 12.1223 22.7589 13.5677C21.2659 15.5166 19.2852 16.6189 16.8216 16.9152V35.7476L16.9011 35.8326C17.2624 35.4419 17.6158 35.0472 17.9875 34.6628C18.3433 34.2911 18.8539 33.9885 19.0334 33.5509C19.2185 33.0951 19.0851 32.5113 19.0914 31.9832C19.1065 30.7594 19.0422 29.5363 19.3177 28.322C20.0675 25.0182 22.8717 22.3093 26.2271 21.8971C27.8552 21.6969 29.5174 21.7644 31.1654 21.7462C31.6967 21.7398 32.0056 22.0869 32.0016 22.6023C31.9897 24.0803 32.0239 25.563 31.9222 27.0346C31.7729 29.1472 30.831 30.9198 29.2919 32.3557C27.6313 33.9051 25.6482 34.6644 23.3705 34.6413C22.4595 34.6326 21.5438 34.6501 20.6377 34.6342C20.5086 34.6252 20.3792 34.6456 20.2592 34.6937C20.1391 34.7419 20.0315 34.8165 19.9444 34.9121C19.0414 35.839 18.1312 36.7602 17.1981 37.6568C16.8979 37.9451 16.7319 38.2382 16.7962 38.6535C16.8039 38.7609 16.8039 38.8686 16.7962 38.976H15.2118V38.5519C15.2118 36.2535 15.2055 33.9552 15.2198 31.6568C15.2264 31.5151 15.2014 31.3736 15.1464 31.2428C15.0915 31.112 15.008 30.9952 14.9021 30.9007C13.9387 29.9596 12.9961 28.9947 12.0335 28.0552C11.8835 27.9197 11.6913 27.8401 11.4895 27.8296C10.4205 27.809 9.34996 27.8479 8.28179 27.8145C4.10121 27.6843 0.80694 24.6092 0.158093 20.8194C0.109648 20.5374 0.0548489 20.2563 -0.000743866 19.9744V15.5341C0.194625 15.0576 0.550419 14.8662 1.05949 14.8987C1.4407 14.921 1.82508 14.8916 2.20788 14.9051C3.43012 14.9488 4.66984 14.8852 5.87224 15.0735C9.91145 15.7088 12.9071 19.2922 12.9111 23.3782C12.9111 24.3813 12.9111 25.3851 12.915 26.3882C12.915 26.5256 12.9222 26.7059 13.0048 26.7924C13.7045 27.5215 14.4216 28.2339 15.1832 29.0002V16.9128C14.8822 16.8699 14.6074 16.8421 14.3382 16.7889C9.96466 15.9201 6.94835 11.726 7.62976 7.28571C8.14042 3.95491 10.0687 1.67084 13.2335 0.49227C13.9125 0.23972 14.6559 0.160301 15.3691 0.00146484H16.716ZM11.2433 25.0738L11.4021 25.0135C11.3227 23.9659 11.3442 22.8993 11.1504 21.8733C10.6326 19.1365 8.19125 16.8842 5.41082 16.5768C4.23702 16.4474 3.04177 16.5093 1.85606 16.4871C1.78763 16.4891 1.71955 16.4976 1.65274 16.5125C1.65274 17.7967 1.51694 19.0666 1.68054 20.296C2.04507 23.0248 3.64058 24.8451 6.1907 25.8505C7.38198 26.3191 8.6217 26.2357 9.85744 26.2373C9.96864 26.231 10.0794 26.2191 10.1894 26.2015C9.06326 25.0738 7.98 23.9921 6.89832 22.9081C6.43055 22.4387 6.3686 21.9924 6.71645 21.6374C7.0643 21.2824 7.52175 21.3316 7.98714 21.7962C8.4933 22.2981 8.99761 22.8011 9.50006 23.3052C10.0846 23.8905 10.6612 24.4821 11.2433 25.0722V25.0738ZM21.8679 32.9847C22.9797 33.0871 24.0686 33.1435 25.1423 32.8925C27.8155 32.2715 30.0622 29.854 30.3291 27.1744C30.453 25.9196 30.3894 24.6473 30.4085 23.3822C30.4085 23.3623 30.3775 23.3425 30.3148 23.2647C29.0576 23.3068 27.7273 23.1948 26.4575 23.4235C22.4508 24.1422 20.1373 27.5866 20.7282 31.9062C20.833 31.8085 20.9284 31.7227 21.0189 31.633C22.064 30.5878 23.1052 29.5387 24.1559 28.4991C24.5053 28.1529 24.9183 28.1441 25.2479 28.4451C25.5775 28.7461 25.5981 29.1678 25.3043 29.5419C25.2188 29.6426 25.1276 29.7383 25.0311 29.8286L21.8679 32.9847Z" fill="black"/>
<path d="M13.3899 10.2091C13.3899 9.75006 13.6846 9.40539 14.1047 9.36012C14.5097 9.31723 14.8631 9.6357 14.956 10.1273C15.0831 10.7992 15.6168 11.1526 16.2792 11.0009C16.7771 10.8889 17.0781 10.5061 17.0336 10.0407C16.9947 9.63808 16.596 9.28706 16.1156 9.27276C15.5231 9.25449 14.964 9.13298 14.4748 8.79625C13.7147 8.26732 13.3113 7.53271 13.3987 6.60272C13.486 5.67273 14.0253 5.00482 14.8766 4.60773C15.0791 4.51481 15.207 4.43936 15.2523 4.18999C15.2874 4.01351 15.383 3.85482 15.5227 3.74129C15.6623 3.62777 15.8371 3.56653 16.0171 3.56815C16.1967 3.5751 16.3686 3.64322 16.5042 3.76123C16.6398 3.87924 16.7311 4.04004 16.7628 4.21699C16.8001 4.43539 16.9002 4.51561 17.0805 4.59344C17.9771 4.97703 18.5005 5.65843 18.6085 6.62972C18.6673 7.15706 18.3567 7.547 17.8977 7.59703C17.4927 7.64071 17.1377 7.32145 17.0455 6.82985C16.9169 6.14289 16.353 5.78312 15.6859 5.96261C15.2015 6.09285 14.9259 6.45738 14.9711 6.91563C15.0108 7.33416 15.4191 7.67407 15.9242 7.68836C16.7358 7.7114 17.4593 7.95759 18.0009 8.57864C19.0977 9.83504 18.6704 11.6664 17.1273 12.351C16.9232 12.4415 16.7954 12.5202 16.7493 12.7688C16.7145 12.9453 16.6191 13.1042 16.4796 13.2179C16.3401 13.3316 16.1653 13.3929 15.9853 13.3914C15.8056 13.3844 15.6338 13.3161 15.4983 13.1979C15.3628 13.0798 15.2718 12.9188 15.2404 12.7417C15.2022 12.5218 15.1014 12.4431 14.9227 12.3661C13.9967 11.9674 13.3828 11.097 13.3899 10.2091Z" fill="black"/>
<path d="M20.6591 3.01945C20.6575 2.91756 20.6763 2.81639 20.7145 2.72192C20.7527 2.62745 20.8095 2.54161 20.8815 2.46948C20.9535 2.39735 21.0392 2.34039 21.1336 2.30199C21.228 2.26359 21.3291 2.24453 21.431 2.24592C21.636 2.25216 21.8302 2.33911 21.9714 2.48786C22.1125 2.6366 22.1892 2.83509 22.1847 3.0401C22.1863 3.1422 22.1674 3.24358 22.1291 3.33824C22.0909 3.4329 22.034 3.51892 21.9619 3.5912C21.8897 3.66348 21.8038 3.72055 21.7093 3.75904C21.6147 3.79753 21.5134 3.81665 21.4113 3.81526C21.3092 3.81388 21.2084 3.79203 21.1149 3.75099C21.0214 3.70996 20.9371 3.65058 20.8669 3.57638C20.7968 3.50217 20.7423 3.41464 20.7065 3.31898C20.6708 3.22332 20.6547 3.12147 20.6591 3.01945Z" fill="black"/>
</g>
<defs>
<clipPath id="clip0_1_203">
<rect width="32" height="38.9745" fill="white"/>
</clipPath>
</defs>
</svg>
